# xmcd
#
# Track frame offsets: 
#        150
#        21503
#        49294
#        68084
#        87725
#        103899
#        122753
#        148958
#        174389
#        198843
#
# Disc length: 3068 seconds
#
# Revision: 1
# Processed by: cddbd v1.5.2PL0 Copyright (c) Steve Scherf et al.
# Submitted via: ExactAudioCopy v1.3
#
DISCID=980bfa0a
DTITLE=David Arkenstone - Atlantis
DYEAR=2004
DGENRE=New Age
TTITLE0=The Dream Of The Gods
TTITLE1=Tower Of Light
TTITLE2=In The Gardens Of The Citadel
TTITLE3=The Temple Of Poseidon
TTITLE4=Jewel Of The Sea
TTITLE5=Festival Of The Goddess
TTITLE6=The Painted Sails
TTITLE7=Across The Great Oceans
TTITLE8=Fire And Water
TTITLE9=Below The Ocean - The Spirit Of Atlantis
EXTD=YEAR: 2004
EXTT0=
EXTT1=
EXTT2=
EXTT3=
EXTT4=
EXTT5=
EXTT6=
EXTT7=
EXTT8=
EXTT9=
PLAYORDER=
